<mxfile host="app.diagrams.net" agent="Mozilla/5.0 (Windows NT 10.0; Win64; x64) AppleWebKit/537.36 (KHTML, like Gecko) Chrome/141.0.0.0 Safari/537.36 Edg/141.0.0.0" version="28.2.8">
  <diagram name="Page-1" id="jGNhddrc9n4SpIU9rqgM">
    <mxGraphModel dx="2252" dy="930" grid="1" gridSize="10" guides="1" tooltips="1" connect="1" arrows="1" fold="1" page="1" pageScale="1" pageWidth="1654" pageHeight="1169" math="0" shadow="0">
      <root>
        <mxCell id="0" />
        <mxCell id="1" parent="0" />
        <mxCell id="KlMsUJrAT-qtKgrj4Z0v-1" value="Memory &amp;amp; Physical FPGA" style="rounded=1;whiteSpace=wrap;html=1;fontStyle=0;strokeWidth=2;strokeColor=#000000;fillColor=#3D6658;fontColor=#FFFFFF;" vertex="1" parent="1">
          <mxGeometry x="430" y="359" width="151" height="15" as="geometry" />
        </mxCell>
        <mxCell id="KlMsUJrAT-qtKgrj4Z0v-2" value="Basic Unit Layer" style="rounded=1;whiteSpace=wrap;html=1;fontStyle=0;strokeWidth=2;strokeColor=#000000;fillColor=#8E4B43;fontColor=#FFFFFF;" vertex="1" parent="1">
          <mxGeometry x="430" y="329" width="151" height="15" as="geometry" />
        </mxCell>
        <mxCell id="KlMsUJrAT-qtKgrj4Z0v-3" value="Fine-Grained Kernel Layer" style="rounded=1;whiteSpace=wrap;html=1;fontStyle=0;strokeWidth=2;strokeColor=#000000;fillColor=#355389;fontColor=#FFFFFF;" vertex="1" parent="1">
          <mxGeometry x="430.5" y="299.5" width="151" height="15" as="geometry" />
        </mxCell>
        <mxCell id="KlMsUJrAT-qtKgrj4Z0v-4" value="Control &amp;amp; Algorithm Layer" style="rounded=1;whiteSpace=wrap;html=1;fontStyle=0;strokeWidth=2;strokeColor=#000000;fillColor=#664F97;fontColor=#FFFFFF;" vertex="1" parent="1">
          <mxGeometry x="431" y="270" width="151" height="15" as="geometry" />
        </mxCell>
        <mxCell id="KlMsUJrAT-qtKgrj4Z0v-5" value="HBM&lt;span style=&quot;color: rgba(0, 0, 0, 0); font-family: monospace; font-size: 0px; text-align: start; text-wrap-mode: nowrap;&quot;&gt;%3CmxGraphModel%3E%3Croot%3E%3CmxCell%20id%3D%220%22%2F%3E%3CmxCell%20id%3D%221%22%20parent%3D%220%22%2F%3E%3CmxCell%20id%3D%222%22%20value%3D%22CKKS%22%20style%3D%22rounded%3D1%3BwhiteSpace%3Dwrap%3Bhtml%3D1%3BstrokeColor%3Ddefault%3BfillColor%3D%238e413d%3BfontStyle%3D0%3BstrokeWidth%3D2%3BfontColor%3D%23FFFFFF%3B%22%20vertex%3D%221%22%20parent%3D%221%22%3E%3CmxGeometry%20x%3D%22332%22%20y%3D%22200%22%20width%3D%2251.5%22%20height%3D%2215%22%20as%3D%22geometry%22%2F%3E%3C%2FmxCell%3E%3C%2Froot%3E%3C%2FmxGraphModel%3E&lt;/span&gt;" style="rounded=1;whiteSpace=wrap;html=1;strokeColor=#000000;fillColor=#A9D5C6;fontStyle=0;strokeWidth=2;" vertex="1" parent="1">
          <mxGeometry x="596.75" y="359" width="51.5" height="15" as="geometry" />
        </mxCell>
        <mxCell id="KlMsUJrAT-qtKgrj4Z0v-6" value="BRAM" style="rounded=1;whiteSpace=wrap;html=1;strokeColor=#000000;fillColor=#BCDCEB;fontStyle=0;strokeWidth=2;" vertex="1" parent="1">
          <mxGeometry x="705.75" y="359" width="52" height="15" as="geometry" />
        </mxCell>
        <mxCell id="KlMsUJrAT-qtKgrj4Z0v-7" value="URAM" style="rounded=1;whiteSpace=wrap;html=1;strokeColor=#000000;fillColor=#BCDCEB;fontStyle=0;strokeWidth=2;" vertex="1" parent="1">
          <mxGeometry x="757.75" y="359" width="58" height="15" as="geometry" />
        </mxCell>
        <mxCell id="KlMsUJrAT-qtKgrj4Z0v-8" value="LUTs" style="rounded=1;whiteSpace=wrap;html=1;strokeColor=#000000;fillColor=#A9D5C6;fontStyle=0;strokeWidth=2;" vertex="1" parent="1">
          <mxGeometry x="648.25" y="359" width="57" height="15" as="geometry" />
        </mxCell>
        <mxCell id="KlMsUJrAT-qtKgrj4Z0v-9" value="Primitives" style="rounded=1;whiteSpace=wrap;html=1;strokeColor=#000000;fillColor=#F2C987;fontStyle=0;strokeWidth=2;" vertex="1" parent="1">
          <mxGeometry x="596.75" y="329" width="334" height="15" as="geometry" />
        </mxCell>
        <mxCell id="KlMsUJrAT-qtKgrj4Z0v-10" value="CK&lt;span style=&quot;color: rgba(0, 0, 0, 0); font-family: monospace; font-size: 0px; text-align: start; text-wrap-mode: nowrap;&quot;&gt;%3CmxGraphModel%3E%3Croot%3E%3CmxCell%20id%3D%220%22%2F%3E%3CmxCell%20id%3D%221%22%20parent%3D%220%22%2F%3E%3CmxCell%20id%3D%222%22%20value%3D%22BRAM%22%20style%3D%22rounded%3D1%3BwhiteSpace%3Dwrap%3Bhtml%3D1%3BstrokeColor%3D%236c8ebf%3BfillColor%3D%23dae8fc%3BfontStyle%3D0%3BstrokeWidth%3D2%3B%22%20vertex%3D%221%22%20parent%3D%221%22%3E%3CmxGeometry%20x%3D%22893.5%22%20y%3D%22344%22%20width%3D%2251.5%22%20height%3D%2215%22%20as%3D%22geometry%22%2F%3E%3C%2FmxCell%3E%3C%2Froot%3E%3C%2FmxGraphModel%3E&lt;/span&gt;KS Kernels" style="rounded=1;whiteSpace=wrap;html=1;strokeColor=#000000;fillColor=#5292C0;fontStyle=0;strokeWidth=2;" vertex="1" parent="1">
          <mxGeometry x="597.25" y="299.5" width="85" height="15" as="geometry" />
        </mxCell>
        <mxCell id="KlMsUJrAT-qtKgrj4Z0v-11" value="FHEW Kernels" style="rounded=1;whiteSpace=wrap;html=1;strokeColor=#000000;fillColor=#94D3F2;fontStyle=0;strokeWidth=2;" vertex="1" parent="1">
          <mxGeometry x="683.5" y="299.5" width="85" height="15" as="geometry" />
        </mxCell>
        <mxCell id="KlMsUJrAT-qtKgrj4Z0v-12" value="Scheme Switching" style="rounded=1;whiteSpace=wrap;html=1;strokeColor=#000000;fillColor=#B3DEED;fontStyle=0;strokeWidth=2;" vertex="1" parent="1">
          <mxGeometry x="768.5" y="299.5" width="111" height="15" as="geometry" />
        </mxCell>
        <mxCell id="KlMsUJrAT-qtKgrj4Z0v-13" value="Pseudo ISA" style="rounded=1;whiteSpace=wrap;html=1;strokeColor=#000000;fillColor=#B186A1;fontStyle=0;strokeWidth=2;" vertex="1" parent="1">
          <mxGeometry x="597.75" y="270" width="76" height="15" as="geometry" />
        </mxCell>
        <mxCell id="KlMsUJrAT-qtKgrj4Z0v-14" value="Data Manager" style="rounded=1;whiteSpace=wrap;html=1;strokeColor=#000000;fillColor=#D5C0CF;fontStyle=0;strokeWidth=2;" vertex="1" parent="1">
          <mxGeometry x="673.75" y="270" width="83" height="15" as="geometry" />
        </mxCell>
        <mxCell id="KlMsUJrAT-qtKgrj4Z0v-15" value="Parameters" style="rounded=1;whiteSpace=wrap;html=1;strokeColor=#000000;fillColor=#E9DCBA;fontStyle=0;strokeWidth=2;" vertex="1" parent="1">
          <mxGeometry x="857.75" y="270" width="73" height="15" as="geometry" />
        </mxCell>
        <mxCell id="KlMsUJrAT-qtKgrj4Z0v-16" value="Memory Manager" style="rounded=1;whiteSpace=wrap;html=1;strokeColor=#000000;fillColor=#D5C0CF;fontStyle=0;strokeWidth=2;" vertex="1" parent="1">
          <mxGeometry x="756.75" y="270" width="101" height="15" as="geometry" />
        </mxCell>
        <mxCell id="KlMsUJrAT-qtKgrj4Z0v-17" value="Utilities" style="rounded=1;whiteSpace=wrap;html=1;strokeColor=#000000;fillColor=#CFE3EE;fontStyle=0;strokeWidth=2;" vertex="1" parent="1">
          <mxGeometry x="879.5" y="299.5" width="51.5" height="15" as="geometry" />
        </mxCell>
        <mxCell id="KlMsUJrAT-qtKgrj4Z0v-18" value="Power" style="rounded=1;whiteSpace=wrap;html=1;strokeColor=#000000;fillColor=#BDD69F;fontStyle=0;strokeWidth=2;" vertex="1" parent="1">
          <mxGeometry x="815.75" y="359" width="57.5" height="15" as="geometry" />
        </mxCell>
        <mxCell id="KlMsUJrAT-qtKgrj4Z0v-19" value="Clock" style="rounded=1;whiteSpace=wrap;html=1;strokeColor=#000000;fillColor=#BDD69F;fontStyle=0;strokeWidth=2;" vertex="1" parent="1">
          <mxGeometry x="873.25" y="359" width="57.5" height="15" as="geometry" />
        </mxCell>
        <mxCell id="KlMsUJrAT-qtKgrj4Z0v-20" value="" style="shape=flexArrow;endArrow=classic;html=1;rounded=0;width=6.027397260273973;endSize=1.7589041095890412;endWidth=6.111111111111111;fillColor=#3399FF;entryX=0.5;entryY=0;entryDx=0;entryDy=0;exitX=0.5;exitY=1;exitDx=0;exitDy=0;" edge="1" parent="1">
          <mxGeometry width="50" height="50" relative="1" as="geometry">
            <mxPoint x="506.30999999999995" y="314.5" as="sourcePoint" />
            <mxPoint x="506.30999999999995" y="328.5" as="targetPoint" />
          </mxGeometry>
        </mxCell>
        <mxCell id="KlMsUJrAT-qtKgrj4Z0v-21" value="" style="shape=flexArrow;endArrow=classic;html=1;rounded=0;width=6.027397260273973;endSize=1.7589041095890412;endWidth=6.111111111111111;fillColor=#3399FF;entryX=0.5;entryY=0;entryDx=0;entryDy=0;exitX=0.5;exitY=1;exitDx=0;exitDy=0;" edge="1" parent="1">
          <mxGeometry width="50" height="50" relative="1" as="geometry">
            <mxPoint x="506.3699999999999" y="285" as="sourcePoint" />
            <mxPoint x="506.3699999999999" y="299" as="targetPoint" />
          </mxGeometry>
        </mxCell>
        <mxCell id="KlMsUJrAT-qtKgrj4Z0v-22" value="" style="shape=flexArrow;endArrow=classic;html=1;rounded=0;width=6.027397260273973;endSize=1.7589041095890412;endWidth=6.111111111111111;fillColor=#3399FF;entryX=0.5;entryY=0;entryDx=0;entryDy=0;" edge="1" parent="1">
          <mxGeometry width="50" height="50" relative="1" as="geometry">
            <mxPoint x="505.80999999999995" y="344" as="sourcePoint" />
            <mxPoint x="505.80999999999995" y="358" as="targetPoint" />
          </mxGeometry>
        </mxCell>
        <mxCell id="KlMsUJrAT-qtKgrj4Z0v-23" value="" style="shape=flexArrow;endArrow=classic;html=1;rounded=0;width=6.027397260273973;endSize=1.7589041095890412;endWidth=6.111111111111111;fillColor=#6666FF;entryX=0.5;entryY=0;entryDx=0;entryDy=0;" edge="1" parent="1">
          <mxGeometry width="50" height="50" relative="1" as="geometry">
            <mxPoint x="583" y="277.41999999999996" as="sourcePoint" />
            <mxPoint x="597.75" y="277.41999999999996" as="targetPoint" />
          </mxGeometry>
        </mxCell>
        <mxCell id="KlMsUJrAT-qtKgrj4Z0v-24" value="" style="shape=flexArrow;endArrow=classic;html=1;rounded=0;width=6.027397260273973;endSize=1.7589041095890412;endWidth=6.111111111111111;fillColor=#6666FF;entryX=0.5;entryY=0;entryDx=0;entryDy=0;" edge="1" parent="1">
          <mxGeometry width="50" height="50" relative="1" as="geometry">
            <mxPoint x="582" y="306.94" as="sourcePoint" />
            <mxPoint x="596.75" y="306.94" as="targetPoint" />
          </mxGeometry>
        </mxCell>
        <mxCell id="KlMsUJrAT-qtKgrj4Z0v-25" value="" style="shape=flexArrow;endArrow=classic;html=1;rounded=0;width=6.027397260273973;endSize=1.7589041095890412;endWidth=6.111111111111111;fillColor=#6666FF;entryX=0.5;entryY=0;entryDx=0;entryDy=0;" edge="1" parent="1">
          <mxGeometry width="50" height="50" relative="1" as="geometry">
            <mxPoint x="581.5" y="336.44" as="sourcePoint" />
            <mxPoint x="596.25" y="336.44" as="targetPoint" />
          </mxGeometry>
        </mxCell>
        <mxCell id="KlMsUJrAT-qtKgrj4Z0v-26" value="" style="shape=flexArrow;endArrow=classic;html=1;rounded=0;width=6.027397260273973;endSize=1.7589041095890412;endWidth=6.111111111111111;fillColor=#6666FF;entryX=0.5;entryY=0;entryDx=0;entryDy=0;" edge="1" parent="1">
          <mxGeometry width="50" height="50" relative="1" as="geometry">
            <mxPoint x="581.5" y="366.40999999999997" as="sourcePoint" />
            <mxPoint x="596.25" y="366.40999999999997" as="targetPoint" />
          </mxGeometry>
        </mxCell>
      </root>
    </mxGraphModel>
  </diagram>
</mxfile>
